<svg id="Layer_1" data-name="Layer 1" xmlns="http://www.w3.org/2000/svg" viewBox="0 0 24.51 24.26"><defs><style>.cls-1{fill:#6d6e71;}</style></defs><title>5</title><path class="cls-1" d="M18,5.51a7.15,7.15,0,0,0-4.62-1.8l0,6.6Z"/><path class="cls-1" d="M12.09,3.67A8.18,8.18,0,0,0,4,12.13a8.46,8.46,0,0,0,8.46,8.46,8.32,8.32,0,0,0,7.45-4.43l-7.62-4V3.67Z"/><polygon class="cls-1" points="16.45 8.54 15.23 12.45 15.94 12.82 17.67 7.29 16.45 8.54"/><polygon class="cls-1" points="14.88 10.16 14.31 11.95 15.02 12.33 16.09 8.91 14.88 10.16"/><path class="cls-1" d="M19.89,7.81,18,13.92l.71.38L20.4,8.84A6.58,6.58,0,0,0,19.89,7.81Z"/><path class="cls-1" d="M20.53,9.19,18.9,14.41l.7.38,1.3-4.13A7.36,7.36,0,0,0,20.53,9.19Z"/><path class="cls-1" d="M21,11.65c0-.13,0-.27,0-.4L19.81,14.9l.42.22A7.57,7.57,0,0,0,21,11.65Z"/><path class="cls-1" d="M18.69,6.24,18,6.92l-1.89,6,.7.37L19,6.55Z"/><polygon class="cls-1" points="13.54 11.54 14.1 11.84 14.51 10.54 13.54 11.54"/><path class="cls-1" d="M19.16,6.76l-2.1,6.67.71.37,2-6.25A7.56,7.56,0,0,0,19.16,6.76Z"/></svg>