<svg id="Layer_1" data-name="Layer 1" xmlns="http://www.w3.org/2000/svg" viewBox="0 0 24.51 24.26"><defs><style>.cls-1{fill:none;stroke:#6d6e71;stroke-miterlimit:10;}.cls-2{fill:#6d6e71;}</style></defs><title>1</title><path class="cls-1" d="M16.22,4.41H8.41A1.83,1.83,0,0,0,6.58,6.25V18a1.83,1.83,0,0,0,1.83,1.83h7.81"/><polygon class="cls-2" points="19.73 11.63 11.4 11.63 11.4 12.63 19.86 12.63 20.29 12.19 19.73 11.63"/><polygon class="cls-2" points="20.72 11.76 21 11.49 17.36 7.85 16.66 8.56 19.73 11.63 20.72 11.63 20.72 11.76"/><polygon class="cls-2" points="20.72 11.76 20.72 11.63 19.73 11.63 20.29 12.19 20.72 11.76"/><polygon class="cls-2" points="20.72 12.63 19.86 12.63 16.66 15.82 17.36 16.53 21 12.9 20.72 12.63 20.72 12.63"/><polygon class="cls-2" points="20.72 12.63 20.29 12.19 19.86 12.63 20.72 12.63 20.72 12.63"/><polygon class="cls-2" points="21 11.49 20.72 11.76 20.72 12.63 21 12.9 21.7 12.19 21 11.49"/><polygon class="cls-2" points="20.72 12.63 20.72 11.76 20.29 12.19 20.72 12.63"/></svg>