<svg id="Layer_1" data-name="Layer 1" xmlns="http://www.w3.org/2000/svg" viewBox="0 0 24.51 24.26"><defs><style>.cls-1,.cls-3{fill:none;}.cls-2{fill:#4d4d4d;}.cls-3{stroke:#4d4d4d;stroke-miterlimit:10;stroke-width:0.75px;}</style></defs><title>3</title><path class="cls-1" d="M9.3,8.11V5.46a7.89,7.89,0,1,0,5.35.19V8.11Z"/><path class="cls-1" d="M13.9,4.62V2.69H10.05v1.8a9.2,9.2,0,0,1,1.68-.16A8.23,8.23,0,0,1,13.9,4.62Z"/><path class="cls-1" d="M13.9,7.36v-2a7.83,7.83,0,0,0-3.85-.13v2.1Z"/><path class="cls-2" d="M14.65,4.85v.8A7.85,7.85,0,1,1,9.3,5.46V4.68a8.64,8.64,0,1,0,5.35.17Z"/><polyline class="cls-3" points="14.37 9.8 14.37 4.72 19.6 4.72"/><polyline class="cls-3" points="10.82 8.67 10.82 14.05 15.02 14.05"/></svg>