<svg id="Layer_1" data-name="Layer 1" xmlns="http://www.w3.org/2000/svg" viewBox="0 0 24.51 24.26"><defs><style>.cls-1{fill:none;stroke:#6d6e71;stroke-miterlimit:10;}</style></defs><title>2</title><path class="cls-1" d="M15.6,11.84A3.36,3.36,0,1,1,12,8.79,3.36,3.36,0,0,1,15.6,11.84Z"/><path class="cls-1" d="M18.84,14.78l.79,0a.5.5,0,0,0,.42-.34l.26-1.25a.47.47,0,0,0-.25-.48l-.71-.35a.59.59,0,0,1-.31-.48s0-.09,0-.31v-.07c0-.09.11-.23.27-.33l.67-.43a.47.47,0,0,0,.2-.5L19.75,9a.5.5,0,0,0-.46-.29l-.79.06A.59.59,0,0,1,18,8.54c-.08-.14-.25-.62-.17-.78l.37-.7a.49.49,0,0,0-.08-.54l-.95-.85a.48.48,0,0,0-.55,0L16,6.09a.56.56,0,0,1-.54,0c-.14-.08-.52-.4-.53-.59l0-.79a.5.5,0,0,0-.34-.43l-1.25-.26a.49.49,0,0,0-.48.25L12.46,5a.61.61,0,0,1-.48.31l-.31,0h-.08c-.08,0-.22-.11-.32-.26l-.43-.68a.48.48,0,0,0-.5-.19l-1.22.39a.51.51,0,0,0-.29.46l.06.8a.56.56,0,0,1-.23.48c-.13.09-.61.26-.77.17l-.71-.37a.49.49,0,0,0-.53.08l-.86,1a.5.5,0,0,0,0,.54l.45.66a.56.56,0,0,1,0,.53c-.08.14-.41.53-.59.54l-.79,0a.5.5,0,0,0-.43.34L4.2,11.1a.49.49,0,0,0,.25.48l.72.35a.6.6,0,0,1,.31.48s0,.09,0,.31v.07c0,.08-.11.23-.26.33l-.68.42a.5.5,0,0,0-.19.51l.39,1.22a.48.48,0,0,0,.46.28L6,15.5a.53.53,0,0,1,.48.22c.09.14.26.61.17.78l-.37.7a.51.51,0,0,0,.08.54l1,.85a.47.47,0,0,0,.54,0l.66-.44a.54.54,0,0,1,.53-.05c.14.07.53.4.54.59l0,.79a.47.47,0,0,0,.33.42l1.26.27a.5.5,0,0,0,.48-.26l.34-.71a.61.61,0,0,1,.49-.31l.31,0h.07c.08,0,.23.11.33.27l.42.67a.49.49,0,0,0,.51.2l1.22-.4a.46.46,0,0,0,.28-.46l0-.79a.56.56,0,0,1,.22-.49,1.34,1.34,0,0,1,.78-.17l.7.37a.49.49,0,0,0,.54-.08l.85-.95a.48.48,0,0,0,0-.54l-.45-.66a.56.56,0,0,1,0-.53C18.32,15.18,18.65,14.79,18.84,14.78Z"/></svg>