<svg xmlns="http://www.w3.org/2000/svg" id="prefix___001-home" width="24" height="23" data-name="home" viewBox="0 0 24 23">
    <g id="home-icon" data-name="home-icon">
        <path id="prefix__Path_3" d="M23.728 21.075l-9.768-9.826-.039-.037a2.812 2.812 0 0 0-3.749-.008l-.039.037-9.858 9.831A.937.937 0 1 0 1.6 22.4l.744-.742v8.089a3.753 3.753 0 0 0 3.75 3.747h3.375a.937.937 0 0 0 .937-.937V24.92h3.281v7.635a.937.937 0 0 0 .938.937h3.281a3.753 3.753 0 0 0 3.75-3.747.938.938 0 0 0-1.875 0 1.876 1.876 0 0 1-1.875 1.874h-2.343v-7.636a.937.937 0 0 0-.937-.937H9.469a.937.937 0 0 0-.937.937v7.635H6.094a1.876 1.876 0 0 1-1.875-1.874v-9.93-.028l7.217-7.2a.937.937 0 0 1 1.216 0l7.13 7.172v5.3a.938.938 0 0 0 1.875 0V21.65l.741.746a.937.937 0 0 0 1.33-1.321z" data-name="Path 3" transform="translate(0 -10.492)" style="fill:#cad0d7"/>
    </g>
</svg>
