<svg xmlns="http://www.w3.org/2000/svg" width="23.996" height="18.001" viewBox="0 0 23.996 18.001">
    <path id="prefix__left-arrow" d="M8.7 18.5a2.329 2.329 0 0 1-1.659-.7l-6.22-6.288a2.872 2.872 0 0 1 0-4.023L7.038 1.2A2.329 2.329 0 0 1 9.606.683a2.365 2.365 0 0 1 1.453 2.189V8.6h12a.948.948 0 0 1 0 1.9h-12a1.887 1.887 0 0 1-1.875-1.9V2.872a.481.481 0 0 0-.819-.337L2.147 8.828a.96.96 0 0 0 0 1.345l6.218 6.293a.481.481 0 0 0 .819-.337V14.09a.937.937 0 1 1 1.875 0v2.039A2.366 2.366 0 0 1 8.7 18.5zm0 0" transform="translate(.001 -.5)" style="fill:#cad0d7"/>
</svg>
