<svg xmlns="http://www.w3.org/2000/svg" id="prefix__menu_7_" width="24" height="24" data-name="menu (7)" viewBox="0 0 24 24">
    <defs>
        <style>
            .prefix__cls-1{fill:#cad0d7}
        </style>
    </defs>
    <g id="prefix__Group_2470" data-name="Group 2470" transform="translate(12.938)">
        <g id="prefix__Group_2469" data-name="Group 2469">
            <path id="prefix__Path_9379" d="M283.313 0h-3.563A3.754 3.754 0 0 0 276 3.75v3.563a3.754 3.754 0 0 0 3.75 3.75h3.563a3.754 3.754 0 0 0 3.75-3.75V3.75a3.754 3.754 0 0 0-3.75-3.75zm1.875 7.313a1.877 1.877 0 0 1-1.875 1.875h-3.563a1.877 1.877 0 0 1-1.875-1.875V3.75a1.877 1.877 0 0 1 1.875-1.875h3.563a1.877 1.877 0 0 1 1.875 1.875z" class="prefix__cls-1" data-name="Path 9379" transform="translate(-276)"/>
        </g>
    </g>
    <g id="prefix__Group_2472" data-name="Group 2472">
        <g id="prefix__Group_2471" data-name="Group 2471">
            <path id="prefix__Path_9380" d="M7.313 0H3.75A3.754 3.754 0 0 0 0 3.75v3.563a3.754 3.754 0 0 0 3.75 3.75h3.563a3.754 3.754 0 0 0 3.75-3.75V3.75A3.754 3.754 0 0 0 7.313 0zm1.875 7.313a1.877 1.877 0 0 1-1.875 1.875H3.75a1.877 1.877 0 0 1-1.875-1.875V3.75A1.877 1.877 0 0 1 3.75 1.875h3.563A1.877 1.877 0 0 1 9.188 3.75z" class="prefix__cls-1" data-name="Path 9380"/>
        </g>
    </g>
    <g id="prefix__Group_2474" data-name="Group 2474" transform="translate(0 12.938)">
        <g id="prefix__Group_2473" data-name="Group 2473">
            <path id="prefix__Path_9381" d="M7.313 276H3.75A3.754 3.754 0 0 0 0 279.75v3.563a3.754 3.754 0 0 0 3.75 3.75h3.563a3.754 3.754 0 0 0 3.75-3.75v-3.563a3.754 3.754 0 0 0-3.75-3.75zm1.875 7.313a1.877 1.877 0 0 1-1.875 1.875H3.75a1.877 1.877 0 0 1-1.875-1.875v-3.563a1.877 1.877 0 0 1 1.875-1.875h3.563a1.877 1.877 0 0 1 1.875 1.875z" class="prefix__cls-1" data-name="Path 9381" transform="translate(0 -276)"/>
        </g>
    </g>
    <g id="prefix__Group_2476" data-name="Group 2476" transform="translate(12.938 12.938)">
        <g id="prefix__Group_2475" data-name="Group 2475">
            <path id="prefix__Path_9382" d="M286.125 282.375a.938.938 0 0 0-.937.938 1.877 1.877 0 0 1-1.875 1.875h-3.563a1.877 1.877 0 0 1-1.875-1.875v-3.563a1.877 1.877 0 0 1 1.875-1.875h3.563a1.876 1.876 0 0 1 1.719 1.125.938.938 0 1 0 1.718-.751 3.751 3.751 0 0 0-3.437-2.249h-3.563a3.754 3.754 0 0 0-3.75 3.75v3.563a3.754 3.754 0 0 0 3.75 3.75h3.563a3.754 3.754 0 0 0 3.75-3.75.938.938 0 0 0-.938-.938z" class="prefix__cls-1" data-name="Path 9382" transform="translate(-276 -276)"/>
        </g>
    </g>
</svg>
