<svg xmlns="http://www.w3.org/2000/svg" width="20" height="24" viewBox="0 0 20 24">
  <g id="Group_2549" data-name="Group 2549" transform="translate(-236 -232)">
    <path id="Path_450" data-name="Path 450" d="M255.951,249.855a.944.944,0,0,0-1.856.346.94.94,0,0,1-.928,1.112H238.834a.935.935,0,0,1-.727-.339.922.922,0,0,1-.2-.773,9.623,9.623,0,0,1,1.325-3.255,7.38,7.38,0,0,0,1.284-3.977v-1.406a5.478,5.478,0,0,1,5.4-5.437h.178a5.469,5.469,0,0,1,5.379,5.437v1.406a6.6,6.6,0,0,0,.949,3.353.947.947,0,0,0,1.28.378.934.934,0,0,0,.381-1.27,4.749,4.749,0,0,1-.721-2.46v-1.406a7.344,7.344,0,0,0-6.421-7.255v-1.37a.945.945,0,0,0-1.889,0v1.373a7.365,7.365,0,0,0-6.421,7.252v1.406a5.626,5.626,0,0,1-1.035,3.046,11.336,11.336,0,0,0-1.542,3.84,2.791,2.791,0,0,0,.6,2.316,2.833,2.833,0,0,0,2.18,1.016h4.343a2.833,2.833,0,0,0,5.665,0h4.325a2.832,2.832,0,0,0,2.179-1.016A2.791,2.791,0,0,0,255.951,249.855Zm-9.942,4.27a.942.942,0,0,1-.944-.937h1.889A.942.942,0,0,1,246.009,254.125Z" fill="#cad0d7"/>
  </g>
</svg>
