<svg xmlns="http://www.w3.org/2000/svg" width="24" height="24" viewBox="0 0 24 24">
    <g id="prefix__star_1_" data-name="star (1)" transform="translate(.001 -9.527)">
        <g id="prefix__Group_2173" data-name="Group 2173" transform="translate(-.001 9.527)">
            <path id="prefix__Path_9305" d="M23.866 18.5a2.561 2.561 0 0 0-2.456-1.862h-4.8a.689.689 0 0 1-.674-.483l-1.482-4.77a2.556 2.556 0 0 0-4.916 0L8.06 16.15a.69.69 0 0 1-.675.484h-4.8A2.56 2.56 0 0 0 .133 18.5a2.716 2.716 0 0 0 .937 3.018l3.88 2.928a.751.751 0 0 1 .258.824L3.726 30a2.7 2.7 0 0 0 .939 3 2.47 2.47 0 0 0 3.038 0l3.88-2.928a.687.687 0 0 1 .834 0L16.297 33a2.47 2.47 0 0 0 3.038 0 2.7 2.7 0 0 0 .939-3l-1.014-3.243a.931.931 0 0 0-1.181-.625.982.982 0 0 0-.6 1.227l1.014 3.243a.729.729 0 0 1-.258.824.669.669 0 0 1-.834 0L13.518 28.5a2.5 2.5 0 0 0-3.038 0L6.6 31.43a.669.669 0 0 1-.834 0 .729.729 0 0 1-.258-.824l1.482-4.738a2.736 2.736 0 0 0-.939-3L2.172 19.94a.748.748 0 0 1-.256-.841.7.7 0 0 1 .673-.517h4.8a2.577 2.577 0 0 0 2.454-1.832l1.481-4.766a.7.7 0 0 1 1.349 0l1.482 4.77a2.576 2.576 0 0 0 2.458 1.83h4.8a.7.7 0 0 1 .673.517.748.748 0 0 1-.256.841l-2.645 2a1 1 0 0 0-.207 1.36.915.915 0 0 0 1.309.215l2.645-2a2.716 2.716 0 0 0 .934-3.017z" data-name="Path 9305" transform="translate(.001 -9.527)" style="fill:#cad0d7"/>
        </g>
    </g>
</svg>
