<svg xmlns="http://www.w3.org/2000/svg" width="24.002" height="24.002" viewBox="0 0 24.002 24.002">
    <path id="prefix__Path_9306" d="M247.095 232a8.9 8.9 0 0 0-6.923 14.5l-1.57 1.57a4.387 4.387 0 0 0-2.476.714 22.127 22.127 0 0 0-3.251 2.365l-.027.023-.025.025a2.812 2.812 0 1 0 3.977 3.977l.042-.044a23.581 23.581 0 0 0 2.388-3.154 4.116 4.116 0 0 0 .758-2.64l1.509-1.509a8.9 8.9 0 0 0 9.319 1.173.938.938 0 0 0-.784-1.7 7.031 7.031 0 1 1 3.176-2.913.938.938 0 1 0 1.629.929A8.909 8.909 0 0 0 247.095 232zm-11.638 21.871a.938.938 0 0 1-1.328-1.323 21.413 21.413 0 0 1 2.571-1.923 5.026 5.026 0 0 1 1.422-.667 12.411 12.411 0 0 1-2.665 3.913z" data-name="Path 9306" transform="translate(-232 -232)" style="fill:#cad0d7"/>
</svg>
