<svg xmlns="http://www.w3.org/2000/svg" width="24" height="24" viewBox="0 0 24 24">
    <path id="prefix___001-user" d="M22.1 15.235a11.241 11.241 0 0 0-2.867-1.795.938.938 0 1 0-.761 1.713 9.376 9.376 0 0 1 2.391 1.49 3.738 3.738 0 0 1 1.266 2.81v1.734a.939.939 0 0 1-.937.938H2.813a.939.939 0 0 1-.937-.937v-1.735a3.738 3.738 0 0 1 1.266-2.81c.947-.832 3.707-2.768 8.859-2.768a6.946 6.946 0 1 0-4.226-1.44 13.034 13.034 0 0 0-5.871 2.8A5.613 5.613 0 0 0 0 19.453v1.734A2.816 2.816 0 0 0 2.813 24h18.375A2.816 2.816 0 0 0 24 21.188v-1.735a5.613 5.613 0 0 0-1.9-4.218zM6.938 6.938A5.062 5.062 0 1 1 12 12a5.068 5.068 0 0 1-5.062-5.062zm0 0" data-name="001-user" style="fill:#cad0d7"/>
</svg>
